# xmcd
#
# Track frame offsets:
#	150
#	10166
#	21337
#	31763
#	46917
#	55643
#	67471
#	76166
#	93268
#	105918
#	120676
#	134592
#	146272
#	158550
#	170971
#	183729
#	196096
#	208630
#	221221
#	229815
#	247977
#	262768
#	283754
#	301987
#	320679
#	333091
#
# Disc length: 4613 seconds
#
# Revision: 0
# Processed by: cddbd v1.5.2PL0 Copyright (c) Steve Scherf et al.
# Submitted via: EZCDAudioConverter 7.0.6.1
#
DISCID=6d12031a
DTITLE=California Poppy Pickers - I Said, She Said, Ah Cid 2/3
DYEAR=1900
DGENRE=
TTITLE0=Wipe Out '69
TTITLE1=Come Back
TTITLE2=Clean Up Your Own Backyard
TTITLE3=Crystal Blue Persuasion
TTITLE4=Bun Buster
TTITLE5=Why Don't We Do It In The Road
TTITLE6=Sunshine Summer Days
TTITLE7=Get Back
TTITLE8=Do Ya Do Ya
TTITLE9=Aquarius/Let The Sunshine In
TTITLE10=Hair
TTITLE11=It's Written All Over My Face
TTITLE12=Horsefly
TTITLE13=Special Delivery
TTITLE14=Back In The U.S.S.R.
TTITLE15=Augie From Bakersfield
TTITLE16=Hushabye
TTITLE17=Yellow Submarine
TTITLE18=With Vigor
TTITLE19=Narrow People
TTITLE20=Blues For Berkley Street People
TTITLE21=Spirit In The Sky
TTITLE22=Born On The Bayou
TTITLE23=Get Together
TTITLE24=Brick Walls
TTITLE25=Honky Tonk Women
EXTD=
EXTT0=
EXTT1=
EXTT2=
EXTT3=
EXTT4=
EXTT5=
EXTT6=
EXTT7=
EXTT8=
EXTT9=
EXTT10=
EXTT11=
EXTT12=
EXTT13=
EXTT14=
EXTT15=
EXTT16=
EXTT17=
EXTT18=
EXTT19=
EXTT20=
EXTT21=
EXTT22=
EXTT23=
EXTT24=
EXTT25=
PLAYORDER=
